<svg width="312" height="94" viewBox="0 0 312 94" fill="none" xmlns="http://www.w3.org/2000/svg">
<path d="M254.728 21.9381C252.1 23.6651 248.486 24.5509 248.051 26.4379C248.196 29.0506 259.663 25.7121 259.663 25.7121C259.663 25.7121 271.566 27.7442 278.388 27.3088C278.388 28.7603 281.726 36.018 289.129 39.2114C287.823 36.5986 285.936 32.8246 287.242 27.7442C297.403 27.7442 305.822 41.3887 303.064 50.3882C302.13 53.4364 297.839 49.0818 291.161 54.8879C295.806 54.5976 296.968 56.7749 302.048 57.3556C303.441 62.0005 307.999 60.6941 311.193 66.7905C311.773 64.9035 312.789 62.2908 307.274 53.4364C309.451 31.6634 309.306 21.0672 292.323 10.6161C288.984 8.43883 298.129 5.97122 298.129 5.97122C298.129 5.97122 295.081 1.61661 279.114 7.56791C278.098 7.94663 251.825 11.7774 254.728 21.9381Z" fill="white"/>
<path d="M7.5452 66.2651L23.5127 26.5081C24.0028 25.3122 24.9046 24.7045 26.2181 24.6849H28.0412C29.3743 24.6849 30.2761 25.2926 30.7466 26.5081L46.7141 66.2651C46.7729 66.3827 46.8023 66.471 46.8023 66.5298C46.8023 66.7454 46.6063 66.8532 46.2142 66.8532H41.8915C41.4994 66.8532 41.1956 66.6572 40.9799 66.2651L36.7749 56.0024H17.4845L13.2794 66.2651C13.0833 66.6572 12.7795 66.8532 12.3678 66.8532H8.0451C7.67262 66.8532 7.48638 66.7454 7.48638 66.5298C7.46678 66.471 7.48638 66.3827 7.5452 66.2651ZM19.0136 51.7973H35.2752L27.1297 31.6247L19.0136 51.7973ZM54.595 64.1479V25.3024C54.595 24.9103 54.791 24.7045 55.1831 24.6849H59.4176C59.8096 24.6849 60.0057 24.8907 60.0057 25.3024V35.5357C62.613 34.3399 65.6222 33.742 69.0334 33.742C73.5619 33.742 77.2573 35.2123 80.1195 38.1529C82.9816 41.0739 84.4127 45.2692 84.4127 50.7387C84.4127 56.1886 82.9718 60.3937 80.09 63.3539C77.2279 66.2945 73.4443 67.7648 68.7393 67.7648C66.1712 67.7648 63.701 67.461 61.329 66.8532C58.9569 66.2455 57.2317 65.6476 56.1535 65.0595L54.595 64.1479ZM60.0057 61.7366C60.0057 61.7758 60.3488 61.9424 61.0349 62.2365C61.721 62.5109 62.7404 62.7952 64.0931 63.0893C65.4654 63.3833 66.8181 63.5304 68.1512 63.5304C71.4839 63.5304 74.1206 62.4619 76.0614 60.3251C78.0022 58.1686 78.9726 54.9634 78.9726 50.7093C78.9726 46.4552 78.012 43.2695 76.0908 41.1523C74.1696 39.0155 71.6603 37.947 68.5629 37.947C65.4654 37.947 62.613 38.545 60.0057 39.7408V61.7366ZM107.291 67.7648C102.605 67.7648 98.8217 66.2945 95.9399 63.3539C93.0777 60.3937 91.6466 56.1788 91.6466 50.7093C91.6466 45.2202 93.0777 41.0249 95.9399 38.1235C98.8217 35.2025 102.605 33.742 107.291 33.742C111.996 33.742 115.779 35.2025 118.641 38.1235C121.523 41.0249 122.964 45.2202 122.964 50.7093C122.964 56.1788 121.523 60.3937 118.641 63.3539C115.779 66.2945 111.996 67.7648 107.291 67.7648ZM107.291 37.947C104.252 37.947 101.782 39.0155 99.8804 41.1523C97.9984 43.2695 97.0574 46.4454 97.0574 50.6799C97.0574 54.9144 97.9984 58.1196 99.8804 60.2957C101.782 62.4521 104.252 63.5304 107.291 63.5304C110.349 63.5304 112.819 62.4521 114.701 60.2957C116.603 58.1196 117.553 54.9144 117.553 50.6799C117.553 46.4454 116.603 43.2695 114.701 41.1523C112.819 39.0155 110.349 37.947 107.291 37.947ZM145.577 64.736C141.127 64.736 137.452 63.3539 134.55 60.5897C131.668 57.8256 130.227 54.0518 130.227 49.2684C130.227 44.485 131.678 40.7014 134.58 37.9176C137.501 35.1339 141.265 33.742 145.872 33.742C148.44 33.742 150.91 34.0458 153.282 34.6536C155.654 35.2417 157.359 35.8396 158.399 36.4473L160.045 37.3295V63.2363C160.045 72.8815 155.027 77.7041 144.989 77.7041C141.127 77.7041 138.03 76.8905 135.697 75.2634C133.364 73.6362 132.041 71.4308 131.727 68.647C131.688 68.2549 131.894 68.0589 132.345 68.0589H136.138C136.491 68.0589 136.726 68.2549 136.844 68.647C137.334 70.0977 138.265 71.2642 139.637 72.1463C141.029 73.0285 142.813 73.4696 144.989 73.4696C148.322 73.4696 150.753 72.656 152.282 71.0289C153.831 69.4018 154.605 66.8042 154.605 63.2363V62.9422C151.998 64.1381 148.989 64.736 145.577 64.736ZM146.489 37.947C143.235 37.947 140.608 38.9468 138.608 40.9465C136.628 42.9265 135.638 45.7103 135.638 49.2978C135.638 52.8853 136.618 55.6593 138.579 57.6197C140.559 59.5605 143.068 60.5309 146.107 60.5309C149.165 60.5309 151.998 59.933 154.605 58.7372V39.7408C154.605 39.7016 154.262 39.5448 153.576 39.2703C152.909 38.9959 151.89 38.7116 150.518 38.4175C149.145 38.1039 147.803 37.947 146.489 37.947ZM172.484 65.0301C170.23 63.1873 169.102 60.6878 169.102 57.5315C169.102 54.3556 170.259 51.8561 172.572 50.033C174.905 48.1902 178.159 47.2688 182.335 47.2688H192.598V46.9747C192.598 40.9563 189.579 37.947 183.541 37.947C181.659 37.947 180.051 38.3979 178.718 39.2997C177.405 40.2015 176.503 41.3582 176.013 42.7696C175.895 43.1617 175.66 43.3578 175.307 43.3578H171.514C171.063 43.3578 170.857 43.1617 170.896 42.7696C171.21 40.0447 172.504 37.8588 174.778 36.2121C177.052 34.5653 179.973 33.742 183.541 33.742C188.206 33.742 191.784 34.8986 194.274 37.2119C196.764 39.5056 198.009 42.7598 198.009 46.9747V66.2651C198.009 66.6572 197.803 66.8532 197.391 66.8532H194.098C193.705 66.8532 193.48 66.6572 193.421 66.2651L192.892 62.9422C192.657 63.3147 192.137 63.8342 191.333 64.5008C190.53 65.1477 189.726 65.677 188.922 66.0887C186.805 67.2061 184.413 67.7648 181.747 67.7648C177.846 67.7648 174.758 66.8532 172.484 65.0301ZM174.513 57.5315C174.513 59.4919 175.16 60.9818 176.454 62.0012C177.767 63.0206 179.63 63.5304 182.041 63.5304C183.335 63.5304 184.58 63.3147 185.776 62.8834C186.991 62.4325 187.981 61.913 188.746 61.3249C189.53 60.7172 190.226 60.0996 190.833 59.4723C191.441 58.845 191.882 58.3255 192.157 57.9138C192.451 57.4825 192.598 57.2472 192.598 57.208V51.5033H182.335C177.12 51.5033 174.513 53.5127 174.513 57.5315ZM208.83 66.2651V37.0355C208.83 33.0166 210.036 29.8114 212.447 27.4197C214.858 25.0084 218.269 23.8027 222.68 23.8027C225.895 23.8027 228.512 24.283 230.532 25.2436C230.924 25.4396 231.12 25.6945 231.12 26.0082V28.9782C231.12 29.4683 230.924 29.6251 230.532 29.4487C228.532 28.4881 226.121 28.0078 223.298 28.0078C217.279 28.0078 214.27 31.017 214.27 37.0355V39.1527H226.532C226.925 39.1527 227.13 39.3487 227.15 39.7408V42.7696C227.15 43.1617 226.944 43.3578 226.532 43.3578H214.27V66.2651C214.27 66.6572 214.064 66.8532 213.653 66.8532H209.447C209.036 66.8532 208.83 66.6572 208.83 66.2651ZM236.531 25.8905C236.531 25.0868 236.932 24.6849 237.736 24.6849H241.647C242.098 24.6849 242.412 24.7829 242.588 24.979C242.765 25.1554 242.853 25.4593 242.853 25.8905V29.8016C242.853 30.2524 242.765 30.5661 242.588 30.7425C242.412 30.919 242.098 31.0072 241.647 31.0072H237.736C237.305 31.0072 236.991 30.919 236.795 30.7425C236.619 30.5661 236.531 30.2524 236.531 29.8016V25.8905ZM236.972 66.2651V35.2417C236.972 34.83 237.168 34.6242 237.56 34.6242H241.765C242.176 34.6242 242.382 34.83 242.382 35.2417V66.2651C242.382 66.6572 242.176 66.8532 241.765 66.8532H237.56C237.168 66.8532 236.972 66.6572 236.972 66.2651ZM254.321 66.2651V35.2417C254.321 34.83 254.517 34.6242 254.909 34.6242H258.232C258.624 34.6242 258.84 34.83 258.879 35.2417L259.438 38.5352C259.673 38.2019 260.183 37.702 260.967 37.0355C261.751 36.3493 262.516 35.8004 263.261 35.3887C265.182 34.2909 267.417 33.742 269.965 33.742C274.023 33.742 277.346 34.9966 279.934 37.506C282.522 40.0153 283.816 43.4754 283.816 47.8863V66.2651C283.816 66.6572 283.619 66.8532 283.227 66.8532H278.993C278.601 66.8532 278.405 66.6572 278.405 66.2651V47.8863C278.405 44.7104 277.581 42.2599 275.935 40.5348C274.288 38.8096 272.2 37.947 269.671 37.947C268.515 37.947 267.368 38.1725 266.231 38.6234C265.113 39.0547 264.182 39.5742 263.437 40.1819C262.692 40.77 262.035 41.3778 261.467 42.0051C260.31 43.2401 259.732 43.9949 259.732 44.2694V66.2651C259.732 66.6572 259.536 66.8532 259.144 66.8532H254.909C254.517 66.8532 254.321 66.6572 254.321 66.2651Z" fill="white"/>
</svg>
