<svg width="435" height="130" viewBox="0 0 435 130" fill="none" xmlns="http://www.w3.org/2000/svg">
<path d="M355.322 29.4382C351.654 31.8493 346.608 33.086 346 35.7206C346.203 39.3685 362.213 34.7073 362.213 34.7073C362.213 34.7073 378.831 37.5446 388.356 36.9366C388.356 38.9632 393.017 49.0961 403.353 53.5547C401.529 49.9068 398.894 44.6376 400.718 37.5446C414.904 37.5446 426.659 56.5946 422.808 69.1595C421.504 73.4153 415.512 67.3355 406.19 75.4419C412.675 75.0366 414.296 78.0765 421.389 78.8871C423.335 85.3722 429.698 83.5483 434.157 92.06C434.968 89.4254 436.386 85.7775 428.685 73.4153C431.725 43.0164 431.522 28.2222 407.811 13.6307C403.15 10.5908 415.918 7.1456 415.918 7.1456C415.918 7.1456 411.662 1.06581 389.369 9.37486C387.951 9.90361 351.269 15.252 355.322 29.4382Z" fill="#0B3559"/>
<path d="M10.212 91.1789L32.5055 35.6711C33.1897 34.0015 34.4488 33.153 36.2826 33.1256H38.8281C40.6893 33.1256 41.9484 33.9741 42.6053 35.6711L64.8987 91.1789C64.9808 91.3431 65.0219 91.4663 65.0219 91.5484C65.0219 91.8495 64.7482 92 64.2008 92H58.1655C57.6181 92 57.1939 91.7263 56.8928 91.1789L51.0218 76.8503H24.089L18.218 91.1789C17.9443 91.7263 17.52 92 16.9452 92H10.91C10.3899 92 10.1299 91.8495 10.1299 91.5484C10.1026 91.4663 10.1299 91.3431 10.212 91.1789ZM26.2239 70.9793H48.9279L37.5554 42.8148L26.2239 70.9793ZM75.9017 88.2228V33.9878C75.9017 33.4404 76.1754 33.153 76.7229 33.1256H82.6349C83.1823 33.1256 83.456 33.413 83.456 33.9878V48.2753C87.0963 46.6057 91.2978 45.7709 96.0603 45.7709C102.383 45.7709 107.542 47.8237 111.538 51.9293C115.535 56.0075 117.533 61.8649 117.533 69.5013C117.533 77.1103 115.521 82.9814 111.497 87.1143C107.501 91.2199 102.219 93.2727 95.6497 93.2727C92.0641 93.2727 88.6154 92.8485 85.3036 92C81.9917 91.1515 79.5831 90.3167 78.0777 89.4956L75.9017 88.2228ZM83.456 84.8562C83.456 84.911 83.935 85.1436 84.893 85.5542C85.851 85.9374 87.2743 86.3343 89.1628 86.7448C91.0788 87.1554 92.9674 87.3607 94.8286 87.3607C99.4816 87.3607 103.163 85.869 105.873 82.8856C108.582 79.8748 109.937 75.3997 109.937 69.4602C109.937 63.5208 108.596 59.073 105.914 56.117C103.231 53.1336 99.7279 51.6419 95.4034 51.6419C91.0788 51.6419 87.0963 52.4767 83.456 54.1463V84.8562ZM149.474 93.2727C142.933 93.2727 137.65 91.2199 133.627 87.1143C129.63 82.9814 127.632 77.0967 127.632 69.4602C127.632 61.7964 129.63 55.9391 133.627 51.8882C137.65 47.81 142.933 45.7709 149.474 45.7709C156.043 45.7709 161.326 47.81 165.322 51.8882C169.345 55.9391 171.357 61.7964 171.357 69.4602C171.357 77.0967 169.345 82.9814 165.322 87.1143C161.326 91.2199 156.043 93.2727 149.474 93.2727ZM149.474 51.6419C145.232 51.6419 141.783 53.1336 139.128 56.117C136.5 59.073 135.187 63.5071 135.187 69.4192C135.187 75.3312 136.5 79.8064 139.128 82.8445C141.783 85.8553 145.232 87.3607 149.474 87.3607C153.744 87.3607 157.193 85.8553 159.82 82.8445C162.475 79.8064 163.803 75.3312 163.803 69.4192C163.803 63.5071 162.475 59.073 159.82 56.117C157.193 53.1336 153.744 51.6419 149.474 51.6419ZM202.929 89.044C196.716 89.044 191.584 87.1143 187.533 83.2551C183.51 79.3958 181.498 74.1269 181.498 67.4485C181.498 60.77 183.523 55.4875 187.574 51.6008C191.652 47.7142 196.908 45.7709 203.34 45.7709C206.925 45.7709 210.374 46.1951 213.686 47.0436C216.998 47.8647 219.379 48.6995 220.83 49.548L223.129 50.7797V86.9501C223.129 100.416 216.122 107.15 202.108 107.15C196.716 107.15 192.391 106.014 189.134 103.742C185.877 101.47 184.03 98.3911 183.592 94.5044C183.537 93.957 183.824 93.6833 184.454 93.6833H189.75C190.243 93.6833 190.571 93.957 190.736 94.5044C191.42 96.5299 192.72 98.1584 194.636 99.3901C196.579 100.622 199.07 101.238 202.108 101.238C206.761 101.238 210.155 100.102 212.29 97.83C214.452 95.5582 215.533 91.9316 215.533 86.9501V86.5395C211.893 88.2092 207.692 89.044 202.929 89.044ZM204.202 51.6419C199.658 51.6419 195.991 53.0378 193.199 55.8296C190.434 58.5941 189.052 62.4807 189.052 67.4895C189.052 72.4984 190.421 76.3713 193.158 79.1084C195.922 81.8181 199.426 83.1729 203.668 83.1729C207.938 83.1729 211.893 82.3381 215.533 80.6685V54.1463C215.533 54.0916 215.054 53.8726 214.096 53.4894C213.166 53.1062 211.743 52.7094 209.827 52.2988C207.911 51.8609 206.036 51.6419 204.202 51.6419ZM240.495 89.4545C237.348 86.8817 235.774 83.3919 235.774 78.9852C235.774 74.5512 237.389 71.0614 240.619 68.5159C243.876 65.9431 248.419 64.6567 254.249 64.6567H268.578V64.2461C268.578 55.8433 264.363 51.6419 255.933 51.6419C253.305 51.6419 251.061 52.2714 249.199 53.5305C247.366 54.7895 246.106 56.4044 245.422 58.3751C245.258 58.9225 244.93 59.1962 244.437 59.1962H239.141C238.511 59.1962 238.224 58.9225 238.278 58.3751C238.716 54.5706 240.523 51.5187 243.698 49.2196C246.873 46.9204 250.951 45.7709 255.933 45.7709C262.447 45.7709 267.442 47.3857 270.918 50.6155C274.394 53.8179 276.132 58.3614 276.132 64.2461V91.1789C276.132 91.7263 275.845 92 275.27 92H270.672C270.124 92 269.81 91.7263 269.727 91.1789L268.988 86.5395C268.66 87.0596 267.935 87.7849 266.812 88.7155C265.69 89.6187 264.568 90.3578 263.446 90.9325C260.49 92.4927 257.151 93.2727 253.428 93.2727C247.981 93.2727 243.67 92 240.495 89.4545ZM243.328 78.9852C243.328 81.7223 244.232 83.8025 246.038 85.2258C247.872 86.649 250.472 87.3607 253.839 87.3607C255.645 87.3607 257.383 87.0596 259.053 86.4574C260.75 85.8279 262.132 85.1026 263.199 84.2815C264.294 83.433 265.266 82.5708 266.114 81.6949C266.963 80.8191 267.579 80.0937 267.962 79.519C268.373 78.9168 268.578 78.5884 268.578 78.5336V70.5687H254.249C246.969 70.5687 243.328 73.3742 243.328 78.9852ZM291.241 91.1789V50.3692C291.241 44.7582 292.924 40.2831 296.291 36.9438C299.657 33.5772 304.42 31.8939 310.578 31.8939C315.067 31.8939 318.721 32.5645 321.54 33.9057C322.088 34.1794 322.361 34.5352 322.361 34.9731V39.1198C322.361 39.8041 322.088 40.023 321.54 39.7767C318.748 38.4355 315.382 37.7649 311.44 37.7649C303.038 37.7649 298.836 41.9663 298.836 50.3692V53.3252H315.957C316.504 53.3252 316.791 53.5989 316.819 54.1463V58.3751C316.819 58.9225 316.531 59.1962 315.957 59.1962H298.836V91.1789C298.836 91.7263 298.549 92 297.974 92H292.103C291.528 92 291.241 91.7263 291.241 91.1789ZM329.916 34.8089C329.916 33.6867 330.477 33.1256 331.599 33.1256H337.059C337.689 33.1256 338.127 33.2625 338.373 33.5362C338.619 33.7825 338.743 34.2068 338.743 34.8089V40.2694C338.743 40.8989 338.619 41.3368 338.373 41.5832C338.127 41.8295 337.689 41.9527 337.059 41.9527H331.599C330.997 41.9527 330.559 41.8295 330.285 41.5832C330.039 41.3368 329.916 40.8989 329.916 40.2694V34.8089ZM330.531 91.1789V47.8647C330.531 47.29 330.805 47.0026 331.353 47.0026H337.224C337.798 47.0026 338.086 47.29 338.086 47.8647V91.1789C338.086 91.7263 337.798 92 337.224 92H331.353C330.805 92 330.531 91.7263 330.531 91.1789ZM354.755 91.1789V47.8647C354.755 47.29 355.028 47.0026 355.576 47.0026H360.215C360.762 47.0026 361.063 47.29 361.118 47.8647L361.898 52.463C362.227 51.9977 362.938 51.2998 364.033 50.3692C365.128 49.4112 366.195 48.6448 367.236 48.07C369.918 46.5373 373.038 45.7709 376.596 45.7709C382.262 45.7709 386.901 47.5226 390.514 51.0261C394.127 54.5295 395.934 59.3604 395.934 65.5188V91.1789C395.934 91.7263 395.66 92 395.113 92H389.201C388.653 92 388.379 91.7263 388.379 91.1789V65.5188C388.379 61.0848 387.23 57.6634 384.931 55.2548C382.632 52.8462 379.717 51.6419 376.186 51.6419C374.571 51.6419 372.97 51.9567 371.382 52.5862C369.822 53.1883 368.522 53.9137 367.482 54.7622C366.442 55.5833 365.525 56.4318 364.731 57.3076C363.116 59.032 362.309 60.0858 362.309 60.4689V91.1789C362.309 91.7263 362.035 92 361.488 92H355.576C355.028 92 354.755 91.7263 354.755 91.1789Z" fill="#011223"/>
</svg>
